<svg width="24" height="24" viewBox="0 0 24 24" fill="none" xmlns="http://www.w3.org/2000/svg"><path d="M12.08 1.48c-3.15 0-3.32 2.76-3.32 4.08V7c-1.55 0-2.82 1.25-2.82 2.8V11c0 2.21 1.79 4 4 4h4.31c2.14 0 3.84-1.67 3.94-3.8l.55-6.19c.12-2.19-1.56-3.71-3.66-3.52-1.87-1.31-3.04-1.31-3 .01zm1.25 1.58c1.3.16 2.13.78 2.32 2.13.06.39.42.66.81.6.4-.06.66-.42.6-.81-.29-2.05-1.74-3.1-3.65-3.32-.4-.05-.75.24-.79.62-.05.39.24.75.62.79.03-.01.06-.01.09-.01zm-1.87 2.14c0-.75.29-2.01 1.78-2.01-1.18 0-1.78.96-1.78 2.01V7h-.01v-1.8z" fill="currentColor"/></svg>
