<svg width="24" height="24" viewBox="0 0 24 24" fill="none" xmlns="http://www.w3.org/2000/svg"><path d="M4.5 9.5c.28 0 .5-.22.5-.5v-4c0-.28.22-.5.5-.5h4c.28 0 .5-.22.5-.5S9.78 3.5 9.5 3.5h-4C4.12 3.5 3 4.62 3 6v3c0 .28.22.5.5.5zm10-6c-.28 0-.5.22-.5.5s.22.5.5.5h4c.28 0 .5.22.5.5v3c0 .28.22.5.5.5s.5-.22.5-.5v-3c0-1.38-1.12-2.5-2.5-2.5h-4zM8.9 14.12c-1.55 1.55-2.19 3.32-1.92 4.47.16.66.75 1.13 1.43 1.14 1.12.02 2.76-.85 4.39-2.61.94-1.01 1.63-1.02 2.37-1.04 1.76-.04 2.38 1.09 3.01 2.22.42.76 1.18 1.25 2.05 1.34 1.18.12 2.01-.89 1.55-2.02-.38-.93-.83-1.63-1.33-2.18-1.63-1.77-3.23-2.63-4.38-2.6-1.16.03-3.26-.06-5.07-1.87-.22-.22-.22-2.08-.22-2.97 0-.91 0-2.31 1.71-4.02.26-.26.23-.7-.05-.93-.11-.09-.25-.13-.38-.13-.23 0-.45.12-.57.32-.82 1.37-1.46 2.05-2.04 2.05-.29 0-.57-.17-.85-.34-.72-.44-1.74-1.06-3.21.41-1.37 1.37-2.17 2.38-2.73 3.63-.56 1.24-.76 2.65-.96 4.09h.73c.48 0 1.59 0 2.87-1.28.2-.19.51-.19.71 0 .2.2.19.52-.01.71-.97.97-1.84 1.25-2.52 1.39l.27 1.93c.04.29-.16.56-.45.61-.28.04-.55-.15-.6-.44-.19-1.35.43-3.08 1.05-4.47.51-1.13 1.2-1.96 2.38-3.14.73-.73 1.01-.65 1.1-.6.13.08.31.19.49.3-.12.63-.25 2.7 1.18 4.14z" fill="currentColor"/></svg>
