<svg width="24" height="24" viewBox="0 0 24 24" fill="none" xmlns="http://www.w3.org/2000/svg"><path d="M14.2 2.76l.33.64c.2.4-.23.82-.62.62l-.7-.34-3.56-1.78c-.29-.15-.45-.44-.45-.77V.92c0-.36.33-.63.68-.58l4.31.66c.26.04.47.23.53.48l-.52-.72zm-7.65 0l-.53-.72c.07-.25.27-.44.53-.48l4.31-.66c.35-.05.68.22.68.58v.17c0 .33-.16.63-.45.77L7.54 4.02l-.7.34c-.39.2-.82-.23-.62-.62l.33-.64zM20.25 10c.81 0 1.5.65 1.71 1.44l.84 3.01c.21.75-.36 1.55-1.14 1.55h-.96v5c0 .55-.45 1-1 1h-2c-.55 0-1-.45-1-1v-4h-2v4c0 .55-.45 1-1 1h-7c-.55 0-1-.45-1-1v-4h-2v4c0 .55-.45 1-1 1H2.75c-.78 0-1.35-.8-1.14-1.55l.84-3.01C2.66 10.65 3.35 10 4.16 10h16.09zm-2.25-5.93c-2.31 1.05-3.37 2.37-3.95 3.93H9.96c-.58-1.56-1.64-2.88-3.95-3.93-1.04-.47-2.34.19-2.02 1.33C4.81 8.5 7.42 10.99 12 11c4.58-.01 7.19-2.5 8.01-5.59.32-1.15-.99-1.81-2.01-1.34z" fill="currentColor"/></svg>
